{
  "accessors": [
    {
      "bufferView": 2,
      "componentType": 5126,
      "count": 1144,
      "max": [
        0.18593639135360718,
        0.26149487495422363,
        0.3507929742336273
      ],
      "min": [
        -0.012006096541881561,
        -0.26149487495422363,
        0.07788589596748352
      ],
      "type": "VEC3"
    },
    {
      "bufferView": 2,
      "byteOffset": 13728,
      "componentType": 5126,
      "count": 1144,
      "max": [
        0.999910295009613,
        0.9999442100524902,
        0.6078076362609863
      ],
      "min": [
        -0.9979339838027954,
        -0.9999442100524902,
        -0.4388388395309448
      ],
      "type": "VEC3"
    },
    {
      "bufferView": 1,
      "componentType": 5126,
      "count": 1144,
      "max": [
        0.9318365454673767,
        0.5644053220748901
      ],
      "min": [
        0.26691097021102905,
        0.00018394336802884936
      ],
      "type": "VEC2"
    },
    {
      "bufferView": 0,
      "componentType": 5125,
      "count": 5760,
      "type": "SCALAR"
    },
    {
      "bufferView": 2,
      "byteOffset": 27456,
      "componentType": 5126,
      "count": 4559,
      "max": [
        0.3799213469028473,
        0.6963050961494446,
        1.6295959949493408
      ],
      "min": [
        -0.31780335307121277,
        -0.6963050961494446,
        0.6570367813110352
      ],
      "type": "VEC3"
    },
    {
      "bufferView": 2,
      "byteOffset": 82164,
      "componentType": 5126,
      "count": 4559,
      "max": [
        0.9996729493141174,
        0.9995583295822144,
        0.9999933838844299
      ],
      "min": [
        -0.9999856948852539,
        -0.999369740486145,
        -0.9924208521842957
      ],
      "type": "VEC3"
    },
    {
      "bufferView": 1,
      "byteOffset": 9152,
      "componentType": 5126,
      "count": 4559,
      "max": [
        1.0000001192092896,
        0.500397264957428
      ],
      "min": [
        0.0,
        0.0
      ],
      "type": "VEC2"
    },
    {
      "bufferView": 0,
      "byteOffset": 23040,
      "componentType": 5125,
      "count": 24900,
      "type": "SCALAR"
    },
    {
      "bufferView": 2,
      "byteOffset": 136872,
      "componentType": 5126,
      "count": 92,
      "max": [
        0.39907306432724,
        0.3564201295375824,
        1.2175177335739136
      ],
      "min": [
        0.05006570369005203,
        -0.30132436752319336,
        0.8119909763336182
      ],
      "type": "VEC3"
    },
    {
      "bufferView": 2,
      "byteOffset": 137976,
      "componentType": 5126,
      "count": 92,
      "max": [
        0.9943358898162842,
        0.6765910983085632,
        0.3215298056602478
      ],
      "min": [
        0.027660874649882317,
        -0.9787841439247131,
        -0.4099552631378174
      ],
      "type": "VEC3"
    },
    {
      "bufferView": 1,
      "byteOffset": 45624,
      "componentType": 5126,
      "count": 92,
      "max": [
        0.8517804145812988,
        0.41090068221092224
      ],
      "min": [
        0.2514367401599884,
        0.22977258265018463
      ],
      "type": "VEC2"
    },
    {
      "bufferView": 0,
      "byteOffset": 122640,
      "componentType": 5125,
      "count": 378,
      "type": "SCALAR"
    },
    {
      "bufferView": 2,
      "byteOffset": 139080,
      "componentType": 5126,
      "count": 4416,
      "max": [
        0.6112552881240845,
        1.098333716392517,
        3.3811724185943604
      ],
      "min": [
        -0.858559787273407,
        -1.1281675100326538,
        1.560384750366211
      ],
      "type": "VEC3"
    },
    {
      "bufferView": 2,
      "byteOffset": 192072,
      "componentType": 5126,
      "count": 4416,
      "max": [
        0.9994959235191345,
        0.9997183680534363,
        0.9997822642326355
      ],
      "min": [
        -0.9999239444732666,
        -0.9997184872627258,
        -0.998175323009491
      ],
      "type": "VEC3"
    },
    {
      "bufferView": 1,
      "byteOffset": 46360,
      "componentType": 5126,
      "count": 4416,
      "max": [
        1.0,
        1.0
      ],
      "min": [
        0.0,
        0.0
      ],
      "type": "VEC2"
    },
    {
      "bufferView": 0,
      "byteOffset": 124152,
      "componentType": 5125,
      "count": 22440,
      "type": "SCALAR"
    },
    {
      "bufferView": 2,
      "byteOffset": 245064,
      "componentType": 5126,
      "count": 3838,
      "max": [
        -0.0037941336631774902,
        0.8601397275924683,
        3.188622236251831
      ],
      "min": [
        -0.6958410143852234,
        -0.8899734616279602,
        2.6787450313568115
      ],
      "type": "VEC3"
    },
    {
      "bufferView": 2,
      "byteOffset": 291120,
      "componentType": 5126,
      "count": 3838,
      "max": [
        0.9997631311416626,
        0.9998688101768494,
        0.9995478987693787
      ],
      "min": [
        -0.9996193051338196,
        -0.9998686909675598,
        -0.9998190402984619
      ],
      "type": "VEC3"
    },
    {
      "bufferView": 1,
      "byteOffset": 81688,
      "componentType": 5126,
      "count": 3838,
      "max": [
        1.0,
        0.4324830174446106
      ],
      "min": [
        0.014939737506210804,
        0.0
      ],
      "type": "VEC2"
    },
    {
      "bufferView": 0,
      "byteOffset": 213912,
      "componentType": 5125,
      "count": 16416,
      "type": "SCALAR"
    },
    {
      "bufferView": 2,
      "byteOffset": 337176,
      "componentType": 5126,
      "count": 2037,
      "max": [
        0.38700222969055176,
        0.406734436750412,
        1.1622016429901123
      ],
      "min": [
        -0.19799965620040894,
        -0.411101371049881,
        0.41647210717201233
      ],
      "type": "VEC3"
    },
    {
      "bufferView": 2,
      "byteOffset": 361620,
      "componentType": 5126,
      "count": 2037,
      "max": [
        0.9999098777770996,
        0.9993795156478882,
        0.6837908029556274
      ],
      "min": [
        -0.9999149441719055,
        -0.9997708201408386,
        -0.19551104307174683
      ],
      "type": "VEC3"
    },
    {
      "bufferView": 1,
      "byteOffset": 112392,
      "componentType": 5126,
      "count": 2037,
      "max": [
        1.0000001192092896,
        1.0000001192092896
      ],
      "min": [
        0.0,
        0.0
      ],
      "type": "VEC2"
    },
    {
      "bufferView": 0,
      "byteOffset": 279576,
      "componentType": 5125,
      "count": 11520,
      "type": "SCALAR"
    },
    {
      "bufferView": 2,
      "byteOffset": 386064,
      "componentType": 5126,
      "count": 1832,
      "max": [
        0.357412725687027,
        0.3744128942489624,
        1.6110680103302002
      ],
      "min": [
        -0.15371976792812347,
        -0.37441286444664,
        0.8237395882606506
      ],
      "type": "VEC3"
    },
    {
      "bufferView": 2,
      "byteOffset": 408048,
      "componentType": 5126,
      "count": 1832,
      "max": [
        0.9998900294303894,
        0.9995036721229553,
        0.9900691509246826
      ],
      "min": [
        -0.9999924302101135,
        -0.9995037317276001,
        -0.8561756610870361
      ],
      "type": "VEC3"
    },
    {
      "bufferView": 1,
      "byteOffset": 128688,
      "componentType": 5126,
      "count": 1832,
      "max": [
        0.8876616954803467,
        0.4723900854587555
      ],
      "min": [
        0.0296688973903656,
        0.10760059207677841
      ],
      "type": "VEC2"
    },
    {
      "bufferView": 0,
      "byteOffset": 325656,
      "componentType": 5125,
      "count": 10080,
      "type": "SCALAR"
    },
    {
      "bufferView": 2,
      "byteOffset": 430032,
      "componentType": 5126,
      "count": 8062,
      "max": [
        0.5471372604370117,
        0.7245346903800964,
        3.114234447479248
      ],
      "min": [
        -0.7035167217254639,
        -0.7543684840202332,
        1.6719293594360352
      ],
      "type": "VEC3"
    },
    {
      "bufferView": 2,
      "byteOffset": 526776,
      "componentType": 5126,
      "count": 8062,
      "max": [
        0.9999792575836182,
        0.9993160367012024,
        0.9999818801879883
      ],
      "min": [
        -0.999884843826294,
        -0.9997689127922058,
        -0.9999915957450867
      ],
      "type": "VEC3"
    },
    {
      "bufferView": 1,
      "byteOffset": 143344,
      "componentType": 5126,
      "count": 8062,
      "max": [
        0.9998511672019958,
        0.9857942461967468
      ],
      "min": [
        0.00014896008360665292,
        0.00014893872139509767
      ],
      "type": "VEC2"
    },
    {
      "bufferView": 0,
      "byteOffset": 365976,
      "componentType": 5125,
      "count": 45168,
      "type": "SCALAR"
    },
    {
      "bufferView": 2,
      "byteOffset": 623520,
      "componentType": 5126,
      "count": 324,
      "max": [
        0.4136497974395752,
        0.48499467968940735,
        2.3727850914001465
      ],
      "min": [
        0.20700305700302124,
        -0.5148283839225769,
        1.9762309789657593
      ],
      "type": "VEC3"
    },
    {
      "bufferView": 2,
      "byteOffset": 627408,
      "componentType": 5126,
      "count": 324,
      "max": [
        0.9958015084266663,
        0.6287427544593811,
        0.21276207268238068
      ],
      "min": [
        0.7592625021934509,
        -0.6287420392036438,
        -0.0833001360297203
      ],
      "type": "VEC3"
    },
    {
      "bufferView": 1,
      "byteOffset": 207840,
      "componentType": 5126,
      "count": 324,
      "max": [
        0.694052517414093,
        0.964117169380188
      ],
      "min": [
        0.0001803073100745678,
        0.00018028893100563437
      ],
      "type": "VEC2"
    },
    {
      "bufferView": 0,
      "byteOffset": 546648,
      "componentType": 5125,
      "count": 1536,
      "type": "SCALAR"
    },
    {
      "bufferView": 2,
      "byteOffset": 631296,
      "componentType": 5126,
      "count": 17046,
      "max": [
        0.3403315246105194,
        0.7350568771362305,
        1.7438008785247803
      ],
      "min": [
        -0.14236892759799957,
        -0.7350568771362305,
        0.007999795489013195
      ],
      "type": "VEC3"
    },
    {
      "bufferView": 2,
      "byteOffset": 835848,
      "componentType": 5126,
      "count": 17046,
      "max": [
        0.9999803900718689,
        0.9999459981918335,
        0.959294319152832
      ],
      "min": [
        -0.9999231100082397,
        -0.9999459385871887,
        -0.9999908208847046
      ],
      "type": "VEC3"
    },
    {
      "bufferView": 1,
      "byteOffset": 210432,
      "componentType": 5126,
      "count": 17046,
      "max": [
        0.9998160004615784,
        0.9971571564674377
      ],
      "min": [
        0.00018397097301203758,
        0.00018392418860457838
      ],
      "type": "VEC2"
    },
    {
      "bufferView": 0,
      "byteOffset": 552792,
      "componentType": 5125,
      "count": 95136,
      "type": "SCALAR"
    }
  ],
  "asset": {
    "extras": {
      "author": "Syed's Creation (https://sketchfab.com/Dawood3D)",
      "license": "CC-BY-4.0 (http://creativecommons.org/licenses/by/4.0/)",
      "source": "https://sketchfab.com/3d-models/chibi-girl-character-3e795731d68d416eb0b8770a6b363e65",
      "title": "Chibi Girl Character"
    },
    "generator": "Sketchfab-15.71.0",
    "version": "2.0"
  },
  "bufferViews": [
    {
      "buffer": 0,
      "byteLength": 933336,
      "name": "floatBufferViews",
      "target": 34963
    },
    {
      "buffer": 0,
      "byteLength": 346800,
      "byteOffset": 933336,
      "byteStride": 8,
      "name": "floatBufferViews",
      "target": 34962
    },
    {
      "buffer": 0,
      "byteLength": 1040400,
      "byteOffset": 1280136,
      "byteStride": 12,
      "name": "floatBufferViews",
      "target": 34962
    }
  ],
  "buffers": [
    {
      "byteLength": 2320536,
      "uri": "scene.bin"
    }
  ],
  "images": [
    {
      "uri": "textures/socks_baseColor.png"
    },
    {
      "uri": "textures/jacket_baseColor.png"
    },
    {
      "uri": "textures/material_baseColor.png"
    },
    {
      "uri": "textures/hairs_baseColor.png"
    },
    {
      "uri": "textures/pony_baseColor.png"
    },
    {
      "uri": "textures/skirt_baseColor.png"
    },
    {
      "uri": "textures/shirt_baseColor.png"
    },
    {
      "uri": "textures/head_baseColor.png"
    },
    {
      "uri": "textures/eyes_baseColor.png"
    },
    {
      "uri": "textures/skin_baseColor.png"
    }
  ],
  "materials": [
    {
      "doubleSided": true,
      "emissiveFactor": [
        0.012983,
        0.00651209,
        0.00802319
      ],
      "name": "socks",
      "pbrMetallicRoughness": {
        "baseColorTexture": {
          "index": 0
        },
        "metallicFactor": 0.0
      }
    },
    {
      "doubleSided": true,
      "name": "jacket",
      "pbrMetallicRoughness": {
        "baseColorTexture": {
          "index": 1
        },
        "metallicFactor": 0.0,
        "roughnessFactor": 0.8965359813619433
      }
    },
    {
      "doubleSided": true,
      "name": "material",
      "pbrMetallicRoughness": {
        "baseColorTexture": {
          "index": 2
        },
        "metallicFactor": 0.0,
        "roughnessFactor": 0.8410669870164833
      }
    },
    {
      "doubleSided": true,
      "name": "hairs",
      "pbrMetallicRoughness": {
        "baseColorTexture": {
          "index": 3
        },
        "metallicFactor": 0.0,
        "roughnessFactor": 0.8795530038581771
      }
    },
    {
      "doubleSided": true,
      "name": "pony",
      "pbrMetallicRoughness": {
        "baseColorTexture": {
          "index": 4
        },
        "metallicFactor": 0.0,
        "roughnessFactor": 0.9050209861520098
      }
    },
    {
      "doubleSided": true,
      "name": "skirt",
      "pbrMetallicRoughness": {
        "baseColorTexture": {
          "index": 5
        },
        "metallicFactor": 0.0,
        "roughnessFactor": 0.8847297490534255
      }
    },
    {
      "doubleSided": true,
      "name": "shirt",
      "pbrMetallicRoughness": {
        "baseColorTexture": {
          "index": 6
        },
        "metallicFactor": 0.0,
        "roughnessFactor": 0.8078503569554202
      }
    },
    {
      "doubleSided": true,
      "name": "head",
      "pbrMetallicRoughness": {
        "baseColorTexture": {
          "index": 7
        },
        "metallicFactor": 0.0,
        "roughnessFactor": 0.8951046759633522
      }
    },
    {
      "doubleSided": true,
      "name": "eyes",
      "pbrMetallicRoughness": {
        "baseColorTexture": {
          "index": 8
        },
        "metallicFactor": 0.0,
        "roughnessFactor": 0.8081995295661932
      }
    },
    {
      "doubleSided": true,
      "name": "skin",
      "pbrMetallicRoughness": {
        "baseColorTexture": {
          "index": 9
        },
        "metallicFactor": 0.0,
        "roughnessFactor": 0.8525402754666339
      }
    }
  ],
  "meshes": [
    {
      "name": "Cube.007_socks_0",
      "primitives": [
        {
          "attributes": {
            "NORMAL": 1,
            "POSITION": 0,
            "TEXCOORD_0": 2
          },
          "indices": 3,
          "material": 0,
          "mode": 4
        }
      ]
    },
    {
      "name": "Cube.007_jacket_0",
      "primitives": [
        {
          "attributes": {
            "NORMAL": 5,
            "POSITION": 4,
            "TEXCOORD_0": 6
          },
          "indices": 7,
          "material": 1,
          "mode": 4
        }
      ]
    },
    {
      "name": "Cube.007_bag_0",
      "primitives": [
        {
          "attributes": {
            "NORMAL": 9,
            "POSITION": 8,
            "TEXCOORD_0": 10
          },
          "indices": 11,
          "material": 2,
          "mode": 4
        }
      ]
    },
    {
      "name": "Cube.007_hairs_0",
      "primitives": [
        {
          "attributes": {
            "NORMAL": 13,
            "POSITION": 12,
            "TEXCOORD_0": 14
          },
          "indices": 15,
          "material": 3,
          "mode": 4
        }
      ]
    },
    {
      "name": "Cube.007_pony_0",
      "primitives": [
        {
          "attributes": {
            "NORMAL": 17,
            "POSITION": 16,
            "TEXCOORD_0": 18
          },
          "indices": 19,
          "material": 4,
          "mode": 4
        }
      ]
    },
    {
      "name": "Cube.007_skirt_0",
      "primitives": [
        {
          "attributes": {
            "NORMAL": 21,
            "POSITION": 20,
            "TEXCOORD_0": 22
          },
          "indices": 23,
          "material": 5,
          "mode": 4
        }
      ]
    },
    {
      "name": "Cube.007_shirt_0",
      "primitives": [
        {
          "attributes": {
            "NORMAL": 25,
            "POSITION": 24,
            "TEXCOORD_0": 26
          },
          "indices": 27,
          "material": 6,
          "mode": 4
        }
      ]
    },
    {
      "name": "Cube.007_head_0",
      "primitives": [
        {
          "attributes": {
            "NORMAL": 29,
            "POSITION": 28,
            "TEXCOORD_0": 30
          },
          "indices": 31,
          "material": 7,
          "mode": 4
        }
      ]
    },
    {
      "name": "Cube.007_eyes_0",
      "primitives": [
        {
          "attributes": {
            "NORMAL": 33,
            "POSITION": 32,
            "TEXCOORD_0": 34
          },
          "indices": 35,
          "material": 8,
          "mode": 4
        }
      ]
    },
    {
      "name": "Cube.007_skin_0",
      "primitives": [
        {
          "attributes": {
            "NORMAL": 37,
            "POSITION": 36,
            "TEXCOORD_0": 38
          },
          "indices": 39,
          "material": 9,
          "mode": 4
        }
      ]
    }
  ],
  "nodes": [
    {
      "children": [
        1
      ],
      "matrix": [
        1.0,
        0.0,
        0.0,
        0.0,
        0.0,
        2.220446049250313e-16,
        -1.0,
        0.0,
        0.0,
        1.0,
        2.220446049250313e-16,
        0.0,
        0.0,
        0.0,
        0.0,
        1.0
      ],
      "name": "Sketchfab_model"
    },
    {
      "children": [
        2
      ],
      "matrix": [
        0.009999999776482582,
        0.0,
        0.0,
        0.0,
        0.0,
        0.0,
        0.009999999776482582,
        0.0,
        0.0,
        -0.009999999776482582,
        0.0,
        0.0,
        0.0,
        0.0,
        0.0,
        1.0
      ],
      "name": "fbx.fbx"
    },
    {
      "children": [
        3
      ],
      "name": "RootNode"
    },
    {
      "children": [
        4,
        5,
        6,
        7,
        8,
        9,
        10,
        11,
        12,
        13
      ],
      "matrix": [
        57.55031204223633,
        0.0,
        0.0,
        0.0,
        0.0,
        -9.37613593713304e-06,
        -57.55031204223557,
        0.0,
        0.0,
        57.55031204223557,
        -9.37613593713304e-06,
        0.0,
        61.30427169799805,
        0.0,
        0.0,
        1.0
      ],
      "name": "Cube.007"
    },
    {
      "mesh": 0,
      "name": "Cube.007_socks_0"
    },
    {
      "mesh": 1,
      "name": "Cube.007_jacket_0"
    },
    {
      "mesh": 2,
      "name": "Cube.007_bag_0"
    },
    {
      "mesh": 3,
      "name": "Cube.007_hairs_0"
    },
    {
      "mesh": 4,
      "name": "Cube.007_pony_0"
    },
    {
      "mesh": 5,
      "name": "Cube.007_skirt_0"
    },
    {
      "mesh": 6,
      "name": "Cube.007_shirt_0"
    },
    {
      "mesh": 7,
      "name": "Cube.007_head_0"
    },
    {
      "mesh": 8,
      "name": "Cube.007_eyes_0"
    },
    {
      "mesh": 9,
      "name": "Cube.007_skin_0"
    }
  ],
  "samplers": [
    {
      "magFilter": 9729,
      "minFilter": 9987,
      "wrapS": 10497,
      "wrapT": 10497
    }
  ],
  "scene": 0,
  "scenes": [
    {
      "name": "Sketchfab_Scene",
      "nodes": [
        0
      ]
    }
  ],
  "textures": [
    {
      "sampler": 0,
      "source": 0
    },
    {
      "sampler": 0,
      "source": 1
    },
    {
      "sampler": 0,
      "source": 2
    },
    {
      "sampler": 0,
      "source": 3
    },
    {
      "sampler": 0,
      "source": 4
    },
    {
      "sampler": 0,
      "source": 5
    },
    {
      "sampler": 0,
      "source": 6
    },
    {
      "sampler": 0,
      "source": 7
    },
    {
      "sampler": 0,
      "source": 8
    },
    {
      "sampler": 0,
      "source": 9
    }
  ]
}
